<svg width="64" height="64" viewBox="0 0 64 64" fill="none" xmlns="http://www.w3.org/2000/svg">
<path d="M31.4499 11.95C31.8699 11.83 32.3099 11.85 32.7099 12C33.1099 12.15 33.4599 12.44 33.6899 12.8C33.9199 13.17 34.0299 13.6 33.9899 14.03C33.9499 14.46 33.7799 14.87 33.4899 15.19C33.1999 15.51 32.8199 15.74 32.3999 15.82C31.9799 15.91 31.5399 15.86 31.1399 15.67C30.7499 15.49 30.4299 15.18 30.2199 14.8C30.0199 14.42 29.9399 13.98 30.0099 13.55C30.0699 13.17 30.2299 12.82 30.4899 12.54C30.7399 12.25 31.0699 12.05 31.4399 11.94L31.4499 11.95Z" fill="white"/>
<path d="M18.6399 17.17C18.9599 17.08 19.2999 17.07 19.6299 17.15C19.9599 17.22 20.2599 17.38 20.5099 17.6C20.7599 17.82 20.9499 18.09 21.0599 18.4C21.1799 18.71 21.2099 19.04 21.1699 19.37C21.1299 19.7 20.9999 20.01 20.8099 20.27C20.6199 20.54 20.3599 20.75 20.0699 20.9C19.7199 21.07 19.3299 21.14 18.9399 21.09C18.5499 21.04 18.1899 20.88 17.8899 20.63C17.6099 20.39 17.3999 20.09 17.2899 19.74C17.1699 19.4 17.1499 19.03 17.2299 18.67C17.3099 18.31 17.4799 17.99 17.7299 17.72C17.9799 17.45 18.2899 17.26 18.6399 17.16V17.17Z" fill="white"/>
<path d="M44.3499 17.14C44.6499 17.08 44.9599 17.09 45.2499 17.16C45.5499 17.24 45.8199 17.38 46.0499 17.59C46.3899 17.88 46.6199 18.28 46.7099 18.73C46.7999 19.17 46.7299 19.63 46.5199 20.03C46.3099 20.43 45.9699 20.75 45.5599 20.93C45.1499 21.11 44.6899 21.15 44.2499 21.04C43.8099 20.93 43.4299 20.67 43.1499 20.31C42.8799 19.95 42.7299 19.51 42.7399 19.06C42.7499 18.61 42.9099 18.18 43.1999 17.83C43.4899 17.48 43.8899 17.24 44.3299 17.15L44.3499 17.14Z" fill="white"/>
<path d="M13.4499 30.08C13.8699 29.96 14.3099 29.98 14.7099 30.13C15.1099 30.28 15.4599 30.57 15.6899 30.93C15.9199 31.3 16.0299 31.73 15.9899 32.16C15.9499 32.59 15.7799 33 15.4899 33.32C15.1999 33.64 14.8199 33.87 14.3999 33.95C13.9799 34.04 13.5399 33.99 13.1399 33.8C12.7499 33.62 12.4299 33.31 12.2199 32.93C12.0199 32.55 11.9399 32.11 12.0099 31.68C12.0699 31.3 12.2299 30.95 12.4899 30.67C12.7399 30.38 13.0699 30.18 13.4399 30.07L13.4499 30.08Z" fill="white"/>
<path d="M49.3399 30.08C49.7599 29.96 50.1999 29.98 50.5999 30.13C50.9999 30.28 51.3499 30.57 51.5799 30.93C51.8099 31.3 51.9199 31.73 51.8799 32.16C51.8399 32.59 51.6699 33 51.3799 33.32C51.0899 33.64 50.7099 33.87 50.2899 33.95C49.8699 34.04 49.4299 33.99 49.0299 33.8C48.6399 33.62 48.3199 33.31 48.1099 32.93C47.9099 32.55 47.8299 32.11 47.8999 31.68C47.9599 31.3 48.1199 30.95 48.3799 30.66C48.6299 30.37 48.9599 30.17 49.3299 30.06L49.3399 30.08Z" fill="white"/>
<path d="M18.7399 42.81C19.0799 42.73 19.4399 42.75 19.7699 42.85C20.1099 42.95 20.4099 43.14 20.6499 43.4C20.8899 43.66 21.0599 43.97 21.1399 44.32C21.2199 44.66 21.2099 45.02 21.0999 45.36C20.9499 45.84 20.6199 46.25 20.1799 46.5C19.7399 46.75 19.2199 46.83 18.7299 46.71C18.2399 46.59 17.8099 46.29 17.5299 45.87C17.2499 45.45 17.1399 44.94 17.2199 44.44C17.2899 44.05 17.4699 43.68 17.7399 43.39C18.0099 43.1 18.3699 42.9 18.7499 42.81H18.7399Z" fill="white"/>
<path d="M44.2799 42.81C44.5799 42.74 44.8999 42.74 45.2099 42.81C45.5099 42.88 45.7999 43.03 46.0399 43.23C46.2499 43.4 46.4199 43.62 46.5399 43.86C46.6599 44.1 46.7299 44.37 46.7499 44.64C46.7699 44.91 46.7299 45.18 46.6399 45.44C46.5499 45.69 46.4099 45.93 46.2199 46.13C46.0299 46.33 45.8099 46.49 45.5699 46.6C45.3199 46.71 45.0499 46.77 44.7799 46.77C44.5099 46.77 44.2399 46.72 43.9899 46.62C43.7399 46.52 43.5099 46.36 43.3299 46.17C43.0699 45.91 42.8899 45.58 42.8099 45.23C42.7299 44.87 42.7399 44.5 42.8599 44.16C42.9699 43.84 43.1599 43.55 43.4099 43.32C43.6599 43.09 43.9599 42.92 44.2999 42.84L44.2799 42.81Z" fill="white"/>
<path d="M31.4499 48.08C31.8599 47.96 32.2999 47.98 32.6999 48.13C33.0999 48.28 33.4499 48.55 33.6799 48.91C33.9099 49.27 34.0299 49.69 33.9999 50.12C33.9699 50.55 33.8099 50.96 33.5399 51.29C33.2599 51.62 32.8899 51.85 32.4699 51.95C32.0499 52.05 31.6099 52.01 31.2199 51.84C30.8299 51.67 30.4999 51.38 30.2799 51.01C30.0599 50.64 29.9699 50.21 30.0199 49.78C30.0599 49.39 30.2199 49.01 30.4699 48.71C30.7199 48.41 31.0599 48.19 31.4499 48.08Z" fill="white"/>
<path d="M58.6399 40.64C59.7899 37.08 60.2499 33.19 59.8599 29.18C58.5399 15.74 47.4899 5.01997 34.0099 4.07997C16.8499 2.86997 2.6899 17.16 4.0999 34.36C5.2099 47.91 16.1999 58.86 29.7499 59.92C39.4199 60.68 48.1599 56.52 53.7199 49.68C54.4599 48.77 54.2399 47.42 53.2699 46.77C52.4099 46.19 51.2499 46.37 50.5999 47.17C45.9299 52.91 38.6499 56.44 30.5699 55.96C18.7399 55.27 9.0399 45.79 8.0899 33.98C6.8999 19.19 19.1599 6.91997 33.9399 8.07997C45.3699 8.96997 54.7099 18.09 55.8799 29.49C56.2399 33 55.8399 36.37 54.8199 39.47C54.5399 40.31 54.8799 41.23 55.6099 41.72C56.7299 42.48 58.2299 41.93 58.6499 40.65L58.6399 40.64Z" fill="white"/>
<path d="M39.92 38.08L34 32.16V23.79C34 22.69 33.1 21.79 32 21.79C30.9 21.79 30 22.69 30 23.79V33.82L37.09 40.91C37.87 41.69 39.14 41.69 39.92 40.91C40.7 40.13 40.7 38.86 39.92 38.08Z" fill="white"/>
</svg>
