<svg width="64" height="64" viewBox="0 0 64 64" fill="none" xmlns="http://www.w3.org/2000/svg">
<path d="M15.3001 11.44C16.3901 11.6 17.4001 10.84 17.5601 9.75C17.5601 9.75 17.6601 9.29 17.9601 8.87C18.2301 8.49 18.7301 7.97 19.9801 7.97C21.3601 7.97 23.3001 9.07 25.3401 10.23C28.3901 11.97 32.1901 14.13 36.6601 14.13H36.7301C40.4001 14.13 45.1201 12.12 46.3701 6.46C46.6101 5.39 45.9301 4.33 44.8501 4.08C43.7701 3.83 42.7201 4.52 42.4701 5.6C41.5401 9.82 37.8301 10.15 36.7101 10.15H36.6401C33.2201 10.15 30.2101 8.43 27.2901 6.77C24.7801 5.36 22.3901 4 19.9701 4H19.9401C15.5001 4 13.8501 7.39 13.5901 9.19C13.4401 10.27 14.1901 11.28 15.2801 11.44H15.3001Z" fill="#413E43"/>
<path d="M48.0001 40H44.0001V44H48.0001V40Z" fill="#413E43"/>
<path d="M57.9901 44.57C59.0901 44.57 59.9801 43.68 59.9801 42.58L60.0201 25.99C60.0201 25.24 59.6001 24.56 58.9401 24.22C58.2701 23.88 57.4801 23.93 56.8701 24.37L48.8801 30.08V25.99C48.8801 25.24 48.4501 24.55 47.7801 24.22C47.1101 23.88 46.3001 23.95 45.7001 24.4L36.8401 30.99V26.99C36.8401 26.25 36.4201 25.57 35.7701 25.22C35.1101 24.88 34.3201 24.92 33.7101 25.35L19.8201 31.49L18.9101 17.38C18.8201 16.35 17.9601 15.56 16.9301 15.56H8.98007C7.94007 15.56 7.09006 16.35 6.99006 17.38L4.01007 57.84C3.96007 58.39 4.15007 58.94 4.53007 59.36C4.91007 59.77 5.44006 60.01 5.99006 60.01H52.0301C56.4201 60.01 59.9901 56.44 59.9901 52.05C59.9901 50.95 59.1001 50.06 58.0001 50.06C56.9001 50.06 56.0101 50.95 56.0101 52.05C56.0101 54.24 54.2301 56.03 52.0301 56.03H21.8401L20.2101 36.08L32.8501 30.81V34.96C32.8501 35.71 33.2801 36.4 33.9501 36.73C34.6201 37.07 35.4301 37 36.0301 36.55L44.8901 29.96V33.96C44.8901 34.71 45.3101 35.39 45.9701 35.73C46.6401 36.07 47.4301 36.02 48.0401 35.58L55.9901 29.9V42.59C55.9901 43.69 56.8801 44.58 57.9801 44.58L57.9901 44.57ZM8.15007 56.02L10.8001 19.54H15.1101L17.8501 56.02H8.15007Z" fill="#413E43"/>
<path d="M48.0001 47.98H44.0001V51.98H48.0001V47.98Z" fill="#413E43"/>
<path d="M40.0001 40H36.0001V44H40.0001V40Z" fill="#413E43"/>
<path d="M32.01 40H28.01V44H32.01V40Z" fill="#413E43"/>
<path d="M32.01 47.98H28.01V51.98H32.01V47.98Z" fill="#413E43"/>
<path d="M40.0001 47.98H36.0001V51.98H40.0001V47.98Z" fill="#413E43"/>
</svg>
