<svg width="64" height="64" viewBox="0 0 64 64" fill="none" xmlns="http://www.w3.org/2000/svg">
<path d="M19.98 41.86C21.0845 41.86 21.98 40.9646 21.98 39.86C21.98 38.7554 21.0845 37.86 19.98 37.86H11.98C10.8754 37.86 9.97998 38.7554 9.97998 39.86C9.97998 40.9646 10.8754 41.86 11.98 41.86H19.98Z" fill="#EC6608"/>
<path d="M31.87 18.51L32.89 18.49C36.93 18.43 41.08 18.36 43.55 14.36C44.09 15.47 44.88 16.43 45.87 17.17C47.24 18.15 48.9 18.66 50.58 18.62C50.7 18.62 50.82 18.62 50.94 18.61C50.94 18.43 50.96 18.25 50.96 18.07C50.96 17.56 51.43 17.04 51.37 16.53C50.08 16.62 48.3 16.28 47.24 15.55C45.92 14.45 45.06 12.9 44.81 11.19C44.78 10.94 44.66 10.72 44.48 10.55C44.3 10.38 44.06 10.28 43.81 10.26C43.56 10.23 43.31 10.29 43.1 10.43C42.89 10.57 42.73 10.77 42.65 11.01C41.02 16.29 37.6 16.34 32.85 16.42L31.96 16.44C31.89 16.98 31.85 17.53 31.85 18.07C31.85 18.22 31.85 18.37 31.86 18.51H31.87Z" fill="#EC6608"/>
<path d="M21.9299 40.69C21.5799 40.7 20.58 40.7 20.5 40.69H21.9299Z" fill="#413E43"/>
<path d="M15.9799 19.95C9.33995 19.95 3.94995 25.33 3.94995 31.98V32.5C3.94995 33.6 4.84995 34.5 5.94995 34.5C7.04995 34.5 7.94995 33.6 7.94995 32.5V32.02C7.94995 27.4 11.85 23.7 16.53 24.01C20.79 24.29 24.0099 28.03 24.0099 32.3V47.82C24.0099 50.04 23.11 52.05 21.66 53.5C20.2099 54.95 18.2 55.85 15.9799 55.85C11.55 55.85 7.94995 52.26 7.94995 47.82V42C7.94995 40.9 7.04995 40 5.94995 40C4.84995 40 3.94995 40.9 3.94995 42V47.5C3.94995 54.11 9.35995 59.89 15.9699 59.89C19.2999 59.89 22.3099 58.54 24.4799 56.37C26.66 54.2 28.0099 51.19 28.0099 47.87V31.98C28.0099 25.33 22.6199 19.95 15.9799 19.95Z" fill="#413E43"/>
<path d="M13.9799 24H17.9799V34C17.9799 35.1 17.08 36 15.9799 36C14.8799 36 13.9799 35.1 13.9799 34V24Z" fill="#413E43"/>
<path d="M53.38 12.53C52.52 9.68004 50.6299 7.26004 48.0799 5.72004C45.5299 4.19004 42.4999 3.66004 39.5799 4.24004C36.6499 4.81004 34.05 6.46004 32.28 8.85004C30.5 11.24 29.67 14.2 29.96 17.16C30.25 20.13 31.62 22.88 33.82 24.88C34.64 25.63 35.5499 26.25 36.5299 26.73C38.1699 27.56 39.9999 28 41.8699 28.01C43.4599 28.01 45.03 27.7 46.49 27.1C46.76 26.99 47.02 26.87 47.28 26.74C49.67 25.54 51.59 23.57 52.75 21.14C54.02 18.45 54.25 15.38 53.38 12.53ZM49.1199 19.42C48.27 21.22 46.7899 22.63 44.9499 23.39C43.9799 23.79 42.9299 24 41.8699 24C39.8899 23.99 37.97 23.25 36.5 21.92C35.4699 20.97 34.7099 19.78 34.2899 18.46C34.0999 17.92 33.9899 17.35 33.9299 16.77C33.9199 16.65 33.9099 16.53 33.8999 16.4C33.7999 14.55 34.3599 12.72 35.4699 11.22C36.6599 9.63004 38.3899 8.54004 40.3399 8.15004C42.2899 7.77004 44.3099 8.12004 46.0099 9.14004C47.7099 10.16 48.9699 11.78 49.5399 13.68C49.8199 14.59 49.93 15.53 49.88 16.46C49.84 17.17 49.6999 17.88 49.4699 18.56C49.3699 18.85 49.25 19.14 49.1199 19.42Z" fill="#413E43"/>
<path d="M59.7899 37.05C57.2899 32.05 52.76 28.26 47.28 26.74C45.57 26.26 43.7599 26 41.8999 26C40.0399 26 38.2399 26.25 36.5299 26.73C34.0899 27.41 31.8399 28.54 29.8699 30.03C29.9799 30.66 30.03 31.32 30.03 31.98V35.27C32.96 32.03 37.1899 30 41.8999 30C48.1699 30 53.5799 33.6 56.2099 38.84C56.5399 39.5 57.2299 39.92 57.9799 39.92C59.1399 39.92 60 38.97 60 37.92C60 37.63 59.9299 37.34 59.7899 37.05Z" fill="#413E43"/>
</svg>
