<svg width="64" height="64" viewBox="0 0 64 64" fill="none" xmlns="http://www.w3.org/2000/svg">
<path d="M55.91 12.63C55.3 8.11 51.5301 4.5 46.9901 4.07C46.25 4 45.53 4.01 44.84 4.09C44.57 4.03 44.29 4 44 4H21.9C18.58 4 15.9 6.69 15.9 10L15.98 40.19C13.56 40.69 11.47 42.06 10.04 43.95C10.01 43.98 9.99003 44.01 9.97003 44.04C9.84003 44.21 9.72005 44.38 9.61005 44.56C9.19005 45.19 8.85003 45.87 8.59003 46.59C8.55003 46.71 8.51003 46.83 8.47003 46.95C8.41003 47.13 8.36001 47.31 8.32001 47.49C8.30001 47.57 8.28001 47.64 8.26001 47.72C8.22001 47.9 8.18002 48.08 8.15002 48.26C8.11002 48.51 8.07004 48.77 8.04004 49.04C8.04004 49.12 8.04004 49.2 8.04004 49.29C8.02004 49.52 8.01001 49.75 8.01001 49.99C8.01001 50.23 8.02004 50.46 8.04004 50.69C8.04004 50.77 8.04004 50.85 8.04004 50.93C8.07004 51.18 8.10002 51.43 8.15002 51.67C8.18002 51.87 8.22002 52.07 8.27002 52.27C8.28002 52.34 8.30001 52.42 8.32001 52.49C8.51001 53.25 8.80003 53.98 9.16003 54.66C9.29003 54.9 9.42 55.12 9.56 55.34C9.7 55.56 9.84005 55.77 9.99005 55.97C9.99005 55.98 10.01 55.99 10.01 55.99C10.12 56.14 10.24 56.29 10.36 56.43C10.72 56.87 11.13 57.28 11.57 57.64C11.71 57.76 11.86 57.88 12.01 57.99C12.01 57.99 12.0134 57.9933 12.02 58C12.17 58.11 12.32 58.22 12.48 58.32C12.64 58.43 12.79 58.53 12.96 58.62C13.1 58.7 13.24 58.78 13.38 58.85C13.47 58.91 13.57 58.96 13.67 59C13.81 59.07 13.96 59.14 14.11 59.2C14.26 59.27 14.41 59.33 14.56 59.38C14.87 59.5 15.18 59.59 15.5 59.67C15.63 59.71 15.76 59.74 15.9 59.77C16.09 59.81 16.28 59.84 16.48 59.87C16.62 59.9 16.76 59.92 16.91 59.93C17.07 59.95 17.23 59.96 17.39 59.97C17.59 59.98 17.8 59.99 18 59.99C18.24 59.99 18.48 59.98 18.71 59.96C18.95 59.96 19.18 59.92 19.41 59.88C19.42 59.89 19.43 59.88 19.43 59.88C19.74 59.95 20.06 59.99 20.39 59.99H39.3C41.03 59.98 42.64 59.47 44 58.6C46.3 57.13 47.85 54.61 48 51.72V45.59C48 44.49 47.1 43.59 46 43.59C45.45 43.59 44.95 43.82 44.59 44.18C44.22 44.54 44 45.04 44 45.59V51.41C44 53.43 42.85 55.18 41.18 55.99C41.18 55.99 41.1734 55.9933 41.16 56C40.52 56.32 39.8 56.49 39.04 56.49C38.28 56.49 37.56 56.32 36.92 56C36.92 56 36.9134 55.9967 36.9 55.99C35.23 55.18 34.07 53.44 34.07 51.41C34.07 51.02 34.11 50.64 34.2 50.27C34.36 49.53 34.68 48.84 35.13 48.26C35.64 47.6 36.01 46.83 36.01 46V45.98C36.01 45.28 35.89 44.61 35.66 43.98C35.61 43.8 35.54 43.63 35.45 43.46C34.5 41.4 32.42 39.98 30.01 39.98H20L19.9 10C19.9 8.9 20.79 8 21.9 8H44V36.09C44 37.19 44.9 38.09 46 38.09C46.55 38.09 47.05 37.86 47.41 37.5C47.78 37.14 48 36.64 48 36.09V8.35C49.93 9.02 51.43 10.69 51.86 12.7C52.29 14.73 51.69 16.65 50.48 18C50.16 18.36 50 18.82 50 19.3C50 20.51 51 21.32 52.03 21.32C52.54 21.32 53.07 21.11 53.47 20.66C55.33 18.58 56.32 15.72 55.91 12.63ZM29.95 43.98C30.93 43.98 31.81 44.65 31.98 45.61C32.05 46.02 32 46.38 31.88 46.71C31.81 46.88 31.72 47.04 31.6 47.19C30.95 48.4 30.59 49.79 30.59 51.27C30.59 51.5 30.59 51.73 30.62 51.95C30.73 53.43 31.21 54.81 31.98 55.99H31.9901L19.62 56C19.62 56 18.76 55.98 18.17 55.98C18.12 55.99 18.06 55.99 18 55.99C17.69 55.99 17.39 55.97 17.09 55.91C16.8 55.88 16.51 55.81 16.23 55.72C15.95 55.64 15.68 55.53 15.42 55.4C15.29 55.35 15.16 55.28 15.04 55.2C14.91 55.13 14.79 55.05 14.67 54.97H14.65C14.59 54.93 14.5401 54.89 14.4901 54.85C14.3601 54.76 14.23 54.66 14.11 54.55C14.08 54.53 14.05 54.5 14.02 54.47C13.89 54.36 13.77 54.24 13.65 54.11C13.6 54.06 13.55 54.01 13.5 53.95C13.39 53.83 13.28 53.7 13.2 53.56C13.15 53.51 13.11 53.47 13.09 53.41C12.95 53.23 12.84 53.04 12.73 52.85C12.71 52.82 12.69 52.79 12.68 52.75C12.61 52.63 12.5501 52.5 12.4901 52.37C12.3501 52.05 12.24 51.71 12.16 51.36C12.14 51.28 12.12 51.2 12.11 51.12C12.07 50.92 12.04 50.73 12.03 50.52C12.01 50.35 12 50.18 12 50V49.98C12 49.8 12.01 49.62 12.03 49.44C12.03 49.24 12.07 49.05 12.11 48.86C12.12 48.77 12.14 48.68 12.17 48.59C12.2 48.44 12.24 48.29 12.29 48.15C12.34 47.98 12.4 47.82 12.47 47.66C12.55 47.48 12.63 47.31 12.71 47.15C12.89 46.8 13.1 46.48 13.36 46.18C13.47 46.02 13.61 45.88 13.75 45.75C13.87 45.61 14 45.49 14.14 45.39C14.3 45.26 14.47 45.13 14.63 45.02C14.78 44.92 14.93 44.82 15.09 44.73C15.12 44.72 15.15 44.7 15.18 44.68C15.33 44.6 15.49 44.52 15.65 44.46C16.01 44.3 16.39 44.18 16.78 44.11C16.97 44.06 17.17 44.03 17.38 44.02C17.58 43.99 17.7801 43.98 17.9901 43.98H29.94H29.95Z" fill="#413E43"/>
<path d="M38 14H26C24.8954 14 24 14.8954 24 16C24 17.1046 24.8954 18 26 18H38C39.1046 18 40 17.1046 40 16C40 14.8954 39.1046 14 38 14Z" fill="#EC6608"/>
<path d="M38 22H26C24.8954 22 24 22.8954 24 24C24 25.1046 24.8954 26 26 26H38C39.1046 26 40 25.1046 40 24C40 22.8954 39.1046 22 38 22Z" fill="#EC6608"/>
<path d="M38 30H26C24.8954 30 24 30.8954 24 32C24 33.1046 24.8954 34 26 34H38C39.1046 34 40 33.1046 40 32C40 30.8954 39.1046 30 38 30Z" fill="#EC6608"/>
</svg>
