<svg width="64" height="64" viewBox="0 0 64 64" fill="none" xmlns="http://www.w3.org/2000/svg">
<path d="M58.9899 23.48L55.8199 21.54V6C55.8199 4.9 54.9199 4 53.8199 4H45.8199C44.7199 4 43.8199 4.9 43.8199 6V14.18L35.4399 9.04C33.2199 7.68 30.4199 7.68 28.1999 9.04L4.66994 23.46C4.23994 23.76 3.93994 24.22 3.84994 24.73C3.75994 25.24 3.86994 25.78 4.15994 26.21C4.45994 26.64 4.90994 26.94 5.41994 27.04C5.92993 27.14 6.46994 27.04 6.90994 26.74L7.80993 26.17V51.88C7.80993 52.87 7.94994 53.87 8.29994 54.8C9.52994 58.03 12.5499 59.98 15.7699 60H47.8599C49.9799 60 51.9999 59.16 53.4899 57.66C54.9799 56.17 55.8099 54.13 55.8099 52.02V34.58C55.8099 34.06 55.6099 33.52 55.2299 33.15C54.8599 32.78 54.3499 32.56 53.8199 32.56C53.2899 32.56 52.7799 32.77 52.4099 33.15C52.0399 33.52 51.7999 34.03 51.7999 34.56V51.93C51.7999 52.83 51.5499 53.74 50.9999 54.45C50.2299 55.44 49.0699 56.01 47.8399 56.01H15.7499C14.5199 56.01 13.3599 55.44 12.5899 54.45C12.0399 53.74 11.7899 52.83 11.7899 51.93V23.77L30.3499 12.39C31.2299 11.85 32.3399 11.85 33.2199 12.39L56.7099 26.78C57.1499 27.07 57.6799 27.16 58.1899 27.06C58.6999 26.96 59.1599 26.66 59.4399 26.23C59.7299 25.8 59.8399 25.27 59.7499 24.76C59.6699 24.24 59.3699 23.78 58.9499 23.49L58.9899 23.48ZM47.8199 7.99H51.8199V19.08L47.8199 16.63V7.99Z" fill="#413E43"/>
<path d="M40.2601 40.6102C40.2601 42.5502 39.5801 44.0502 38.2201 45.1202C37.3301 45.8202 36.1601 46.2902 34.6901 46.5302V47.9702C34.6901 49.0802 33.7901 49.9702 32.6901 49.9702C31.5901 49.9702 30.6901 49.0802 30.6901 47.9702V46.6802C30.3001 46.6502 29.9401 46.6102 29.5901 46.5602C28.8501 46.4502 28.1901 46.3202 27.6201 46.1602C27.0501 46.0002 26.5601 45.8302 26.1501 45.6502C25.7401 45.4702 25.4001 45.3002 25.1201 45.1402L26.4401 41.4202C27.0601 41.7602 27.8201 42.0602 28.7301 42.3302C29.3001 42.5002 29.9601 42.6202 30.6901 42.6802C31.1301 42.7202 31.5901 42.7402 32.0801 42.7402C32.7401 42.7402 33.2801 42.6802 33.7101 42.5702C34.1101 42.4702 34.4401 42.3302 34.6901 42.1502C34.7101 42.1402 34.7201 42.1302 34.7401 42.1202C35.0001 41.9302 35.1801 41.7102 35.2801 41.4502C35.3801 41.1902 35.4301 40.9002 35.4301 40.5802C35.4301 39.9802 35.1901 39.4702 34.6901 39.0502C34.6301 38.9902 34.5501 38.9402 34.4701 38.8802C33.8301 38.4302 32.7401 37.9502 31.1801 37.4302C31.0201 37.3702 30.8501 37.3102 30.6901 37.2402C30.1701 37.0602 29.6601 36.8402 29.1401 36.6002C28.4601 36.3002 27.8501 35.9102 27.3101 35.4302C26.7701 34.9702 26.3301 34.4002 25.9901 33.7302C25.6501 33.0602 25.4801 32.2402 25.4801 31.2802C25.4801 30.3202 25.6601 29.4602 26.0201 28.6902C26.3801 27.9202 26.8901 27.2602 27.5501 26.7202C28.2101 26.1802 29.0101 25.7702 29.9501 25.4802C30.1901 25.4102 30.4301 25.3402 30.6901 25.2902V23.9702C30.6901 22.8702 31.5901 21.9702 32.6901 21.9702C33.2401 21.9702 33.7401 22.2002 34.1001 22.5602C34.4701 22.9202 34.6901 23.4202 34.6901 23.9702V25.1202C35.4501 25.1802 36.1301 25.3102 36.7501 25.4902C37.7701 25.7902 38.6101 26.1202 39.2701 26.4802L37.9201 30.1702C37.3401 29.8702 36.7001 29.6102 35.9901 29.3802C35.6001 29.2502 35.1701 29.1602 34.6901 29.1102C34.3001 29.0502 33.8701 29.0302 33.4201 29.0302C32.3001 29.0302 31.5001 29.1902 31.0101 29.5002C30.8901 29.5802 30.7801 29.6602 30.6901 29.7602C30.4101 30.0602 30.2801 30.4402 30.2801 30.9202C30.2801 31.3002 30.3701 31.6202 30.5501 31.8802C30.5901 31.9402 30.6401 32.0002 30.6901 32.0602C30.8501 32.2502 31.0601 32.4302 31.3101 32.5902C31.6401 32.8002 32.0201 32.9902 32.4501 33.1602C32.8801 33.3302 33.3501 33.5002 33.8701 33.6802C34.1501 33.7902 34.4301 33.8902 34.6901 34.0002C35.4401 34.2902 36.1001 34.5802 36.6901 34.8702C37.4901 35.2602 38.1601 35.7102 38.6901 36.2302C39.2201 36.7502 39.6101 37.3602 39.8701 38.0602C40.1301 38.7602 40.2601 39.6102 40.2601 40.6102Z" fill="#413E43"/>
</svg>
