<svg width="21" height="21" viewBox="0 0 21 21" fill="none" xmlns="http://www.w3.org/2000/svg">
<path d="M14.7656 10.3444C14.7656 10.8345 14.5754 11.2943 14.2304 11.64L9.35491 16.5265C9.00996 16.8723 8.55122 17.063 8.06225 17.0629C7.05407 17.0629 6.23437 16.2414 6.23437 15.2309C6.23437 14.7409 6.42463 14.2811 6.76958 13.9354L10.3524 10.3444L6.78202 6.75346C6.30728 6.27764 6.13125 5.65034 6.29661 5.03195C6.47086 4.37791 7.00429 3.84328 7.65151 3.66863C8.26495 3.50468 8.89083 3.68467 9.36736 4.16228L14.2304 9.0506C14.5754 9.39633 14.7656 9.85611 14.7656 10.3444Z" fill="white"/>
</svg>
