<svg width="64" height="64" viewBox="0 0 64 64" fill="none" xmlns="http://www.w3.org/2000/svg">
<path d="M56.7301 55.11C56.3501 55.69 55.7301 56 55.0801 56C54.7201 56 54.3501 55.8999 54.0201 55.6899C53.9201 55.6299 43.9901 49.3499 31.9901 49.3499C19.9901 49.3499 10.0701 55.6199 9.96009 55.6899C9.05009 56.27 7.84009 56.0099 7.26009 55.0999C6.68009 54.1899 6.94009 52.98 7.85009 52.4C8.03009 52.29 9.85009 51.13 12.8201 49.79V22.77C12.8201 19.64 14.0501 16.69 16.2601 14.47L19.3401 11.39C21.5501 9.17995 24.5001 7.94995 27.6401 7.94995H36.3601C39.4901 7.94995 42.4401 9.17995 44.6601 11.39L47.7401 14.47C49.9601 16.69 51.1801 19.64 51.1801 22.77V43.7799C51.1801 44.86 50.3001 45.7299 49.2301 45.7299C48.1601 45.7299 47.2801 44.8499 47.2801 43.7799V22.77C47.2801 20.68 46.4701 18.72 44.9901 17.23L41.9101 14.15C40.4401 12.68 38.4601 11.86 36.3701 11.86H27.6501C25.5601 11.86 23.6001 12.67 22.1101 14.15L19.0301 17.23C17.5601 18.7 16.7401 20.68 16.7401 22.77V48.22C20.8901 46.75 26.1801 45.4399 31.9901 45.4399C45.1601 45.4399 55.6901 52.12 56.1301 52.4C57.0401 52.99 57.3101 54.2 56.7201 55.11H56.7301Z" fill="white"/>
<path d="M37.97 26.06H34.16V22.25C34.16 21.17 33.28 20.3 32.21 20.3C31.14 20.3 30.26 21.18 30.26 22.25V26.06H26.45C25.37 26.06 24.5 26.94 24.5 28.01C24.5 29.08 25.38 29.96 26.45 29.96H30.26V36.71C30.26 37.79 31.14 38.66 32.21 38.66C33.28 38.66 34.16 37.78 34.16 36.71V29.96H37.97C39.05 29.96 39.92 29.08 39.92 28.01C39.92 26.94 39.04 26.06 37.97 26.06Z" fill="white"/>
</svg>
